<svg version="1.1" xmlns="http://www.w3.org/2000/svg" viewBox="0 0 888 547" width="888" height="547">
  <!-- svg-source:excalidraw -->
  
  <defs>
    <style>
      @font-face {
        font-family: "Virgil";
        src: url("https://excalidraw.com/Virgil.woff2");
      }
      @font-face {
        font-family: "Cascadia";
        src: url("https://excalidraw.com/Cascadia.woff2");
      }
    </style>
  </defs>
  <rect x="0" y="0" width="888" height="547" fill="#ffffff"></rect><g stroke-linecap="round" transform="translate(10 11) rotate(0 432 263)"><path d="M0 0 C345.42 0, 690.85 0, 864 0 M0 0 C199.64 0, 399.27 0, 864 0 M864 0 C864 200.59, 864 401.17, 864 526 M864 0 C864 172.64, 864 345.28, 864 526 M864 526 C526.41 526, 188.81 526, 0 526 M864 526 C522.33 526, 180.66 526, 0 526 M0 526 C0 349.12, 0 172.23, 0 0 M0 526 C0 366.69, 0 207.38, 0 0" stroke="#000000" stroke-width="1" fill="none"></path></g><g stroke-linecap="round" transform="translate(11 10) rotate(0 101 212)"><path d="M0 0 C64.57 0, 129.13 0, 202 0 M0 0 C61.59 0, 123.18 0, 202 0 M202 0 C202 142.44, 202 284.87, 202 424 M202 0 C202 133.35, 202 266.71, 202 424 M202 424 C143.1 424, 84.21 424, 0 424 M202 424 C159.7 424, 117.41 424, 0 424 M0 424 C0 338.7, 0 253.39, 0 0 M0 424 C0 287.04, 0 150.08, 0 0" stroke="#000000" stroke-width="1" fill="none"></path></g><g stroke-linecap="round" transform="translate(673 12) rotate(0 101 156.5)"><path d="M0 0 C73.96 0, 147.93 0, 202 0 M0 0 C73.95 0, 147.9 0, 202 0 M202 0 C202 80.56, 202 161.11, 202 313 M202 0 C202 72.32, 202 144.65, 202 313 M202 313 C135.24 313, 68.48 313, 0 313 M202 313 C144.94 313, 87.88 313, 0 313 M0 313 C0 246.43, 0 179.86, 0 0 M0 313 C0 237.47, 0 161.95, 0 0" stroke="#000000" stroke-width="1" fill="none"></path></g><g stroke-linecap="round" transform="translate(14 434) rotate(0 432 51)"><path d="M0 0 C234.21 0, 468.43 0, 864 0 M0 0 C268.12 0, 536.25 0, 864 0 M864 0 C864 34.88, 864 69.77, 864 102 M864 0 C864 38.38, 864 76.77, 864 102 M864 102 C673.4 102, 482.79 102, 0 102 M864 102 C542.51 102, 221.02 102, 0 102 M0 102 C0 80.63, 0 59.26, 0 0 M0 102 C0 66.14, 0 30.28, 0 0" stroke="#000000" stroke-width="1" fill="none"></path></g><g stroke-linecap="round" transform="translate(405 467) rotate(0 21.5 18)"><path d="M43 18 C43 19.04, 42.89 20.1, 42.67 21.13 C42.46 22.15, 42.13 23.18, 41.7 24.16 C41.28 25.14, 40.74 26.1, 40.12 27 C39.5 27.9, 38.77 28.77, 37.97 29.57 C37.17 30.37, 36.27 31.12, 35.32 31.79 C34.37 32.46, 33.33 33.07, 32.25 33.59 C31.17 34.11, 30.02 34.56, 28.85 34.91 C27.68 35.27, 26.46 35.55, 25.23 35.73 C24.01 35.91, 22.74 36, 21.5 36 C20.26 36, 18.99 35.91, 17.77 35.73 C16.54 35.55, 15.32 35.27, 14.15 34.91 C12.98 34.56, 11.83 34.11, 10.75 33.59 C9.67 33.07, 8.63 32.46, 7.68 31.79 C6.73 31.12, 5.83 30.37, 5.03 29.57 C4.23 28.77, 3.5 27.9, 2.88 27 C2.26 26.1, 1.72 25.14, 1.3 24.16 C0.87 23.18, 0.54 22.15, 0.33 21.13 C0.11 20.1, 0 19.04, 0 18 C0 16.96, 0.11 15.9, 0.33 14.87 C0.54 13.85, 0.87 12.82, 1.3 11.84 C1.72 10.86, 2.26 9.9, 2.88 9 C3.5 8.1, 4.23 7.23, 5.03 6.43 C5.83 5.63, 6.73 4.88, 7.68 4.21 C8.63 3.54, 9.67 2.93, 10.75 2.41 C11.83 1.89, 12.98 1.44, 14.15 1.09 C15.32 0.73, 16.54 0.45, 17.77 0.27 C18.99 0.09, 20.26 0, 21.5 0 C22.74 0, 24.01 0.09, 25.23 0.27 C26.46 0.45, 27.68 0.73, 28.85 1.09 C30.02 1.44, 31.17 1.89, 32.25 2.41 C33.33 2.93, 34.37 3.54, 35.32 4.21 C36.27 4.88, 37.17 5.63, 37.97 6.43 C38.77 7.23, 39.5 8.1, 40.12 9 C40.74 9.9, 41.28 10.86, 41.7 11.84 C42.13 12.82, 42.46 13.85, 42.67 14.87 C42.89 15.9, 42.95 17.48, 43 18 C43.05 18.52, 43.05 17.48, 43 18" stroke="#000000" stroke-width="1" fill="none"></path></g><g stroke-linecap="round" transform="translate(382 480) rotate(0 4.5 5.5)"><path d="M5 0 C6.15 1.73, 7.31 3.46, 9 6 M5 0 C6.17 1.75, 7.34 3.51, 9 6 M9 6 C7.64 7.7, 6.27 9.41, 5 11 M9 6 C7.47 7.91, 5.94 9.83, 5 11 M5 11 C3.78 9.78, 2.55 8.55, 0 6 M5 11 C3.46 9.46, 1.92 7.92, 0 6 M0 6 C1.04 4.75, 2.08 3.5, 5 0 M0 6 C1.8 3.84, 3.61 1.67, 5 0" stroke="#000000" stroke-width="1" fill="none"></path></g><g stroke-linecap="round" transform="translate(469.5 480.5) rotate(0 4.5 5.5)"><path d="M5 0 C6.59 2.38, 8.18 4.76, 9 6 M5 0 C6.48 2.22, 7.96 4.44, 9 6 M9 6 C8.1 7.13, 7.19 8.26, 5 11 M9 6 C7.83 7.47, 6.65 8.93, 5 11 M5 11 C3.38 9.38, 1.77 7.77, 0 6 M5 11 C3.14 9.14, 1.27 7.27, 0 6 M0 6 C1.9 3.72, 3.8 1.44, 5 0 M0 6 C1.74 3.91, 3.48 1.82, 5 0" stroke="#000000" stroke-width="1" fill="none"></path></g><g stroke-linecap="round" transform="translate(40 468) rotate(0 22 17)"><path d="M0 0 C9.76 0, 19.51 0, 44 0 M0 0 C12.21 0, 24.42 0, 44 0 M44 0 C44 10.07, 44 20.14, 44 34 M44 0 C44 8.94, 44 17.88, 44 34 M44 34 C29.66 34, 15.31 34, 0 34 M44 34 C33.39 34, 22.78 34, 0 34 M0 34 C0 24.36, 0 14.72, 0 0 M0 34 C0 27.08, 0 20.16, 0 0" stroke="#000000" stroke-width="1" fill="none"></path></g><g transform="translate(101 461) rotate(0 49 25)"><text x="0" y="18" font-family="Virgil, Segoe UI Emoji" font-size="20px" fill="#000000" text-anchor="start" style="white-space: pre;" direction="ltr">song name</text><text x="0" y="43" font-family="Virgil, Segoe UI Emoji" font-size="20px" fill="#000000" text-anchor="start" style="white-space: pre;" direction="ltr">artist</text></g><g stroke-linecap="round" transform="translate(767 475) rotate(0 42 11)"><path d="M0 0 C23.81 0, 47.62 0, 84 0 M0 0 C17.1 0, 34.19 0, 84 0 M84 0 C84 5.48, 84 10.97, 84 22 M84 0 C84 6.3, 84 12.6, 84 22 M84 22 C62.47 22, 40.94 22, 0 22 M84 22 C64.95 22, 45.9 22, 0 22 M0 22 C0 14.67, 0 7.34, 0 0 M0 22 C0 17.17, 0 12.35, 0 0" stroke="#000000" stroke-width="1" fill="none"></path></g><g stroke-linecap="round" transform="translate(673 270) rotate(0 100.5 28)"><path d="M0 0 C64.01 0, 128.02 0, 201 0 M0 0 C49.55 0, 99.09 0, 201 0 M201 0 C201 16.27, 201 32.55, 201 56 M201 0 C201 11.54, 201 23.08, 201 56 M201 56 C145.28 56, 89.57 56, 0 56 M201 56 C155.37 56, 109.74 56, 0 56 M0 56 C0 36.86, 0 17.71, 0 0 M0 56 C0 37.68, 0 19.36, 0 0" stroke="#000000" stroke-width="1" fill="none"></path></g><g stroke-linecap="round" transform="translate(695 289) rotate(0 82 10.5)"><path d="M0 0 C54.61 0, 109.22 0, 164 0 M0 0 C40.02 0, 80.04 0, 164 0 M164 0 C164 7.62, 164 15.24, 164 21 M164 0 C164 6.71, 164 13.42, 164 21 M164 21 C129.96 21, 95.92 21, 0 21 M164 21 C123.14 21, 82.29 21, 0 21 M0 21 C0 16.7, 0 12.4, 0 0 M0 21 C0 13.02, 0 5.03, 0 0" stroke="#000000" stroke-width="1" fill="none"></path></g><g stroke-linecap="round" transform="translate(673 325) rotate(0 102 54)"><path d="M0 0 C53.3 0, 106.6 0, 204 0 M0 0 C64.06 0, 128.12 0, 204 0 M204 0 C204 36.29, 204 72.57, 204 108 M204 0 C204 31.74, 204 63.49, 204 108 M204 108 C155.29 108, 106.58 108, 0 108 M204 108 C160.54 108, 117.08 108, 0 108 M0 108 C0 73.73, 0 39.45, 0 0 M0 108 C0 76.06, 0 44.12, 0 0" stroke="#000000" stroke-width="1" fill="none"></path></g><g transform="translate(695 106) rotate(0 73 12.5)"><text x="0" y="18" font-family="Virgil, Segoe UI Emoji" font-size="20px" fill="#000000" text-anchor="start" style="white-space: pre;" direction="ltr">chat messages</text></g><g transform="translate(40 25) rotate(0 22.5 25)"><text x="0" y="18" font-family="Virgil, Segoe UI Emoji" font-size="20px" fill="#000000" text-anchor="start" style="white-space: pre;" direction="ltr">home</text><text x="0" y="43" font-family="Virgil, Segoe UI Emoji" font-size="20px" fill="#000000" text-anchor="start" style="white-space: pre;" direction="ltr"></text></g><g stroke-linecap="round"><g transform="translate(15 95) rotate(0 93 0)"><path d="M0 0 C31 0, 155 0, 186 0 M0 0 C31 0, 155 0, 186 0" stroke="#000000" stroke-width="1" fill="none"></path></g></g><g transform="translate(34 55) rotate(0 32 25)"><text x="0" y="18" font-family="Virgil, Segoe UI Emoji" font-size="20px" fill="#000000" text-anchor="start" style="white-space: pre;" direction="ltr">search</text><text x="0" y="43" font-family="Virgil, Segoe UI Emoji" font-size="20px" fill="#000000" text-anchor="start" style="white-space: pre;" direction="ltr"></text></g><g stroke-linecap="round"><g transform="translate(15 148) rotate(0 91 1)"><path d="M0 0 C30.33 0.33, 151.67 1.67, 182 2 M0 0 C30.33 0.33, 151.67 1.67, 182 2" stroke="#000000" stroke-width="1" fill="none"></path></g></g><g transform="translate(46 111) rotate(0 28 25)"><text x="0" y="18" font-family="Virgil, Segoe UI Emoji" font-size="20px" fill="#000000" text-anchor="start" style="white-space: pre;" direction="ltr">Party</text><text x="0" y="43" font-family="Virgil, Segoe UI Emoji" font-size="20px" fill="#000000" text-anchor="start" style="white-space: pre;" direction="ltr"></text></g><g transform="translate(28 195) rotate(0 77 12.5)"><text x="0" y="18" font-family="Virgil, Segoe UI Emoji" font-size="20px" fill="#000000" text-anchor="start" style="white-space: pre;" direction="ltr">list of playlists</text></g></svg>