<svg version="1.1" xmlns="http://www.w3.org/2000/svg" viewBox="0 0 1217 1114" width="1217" height="1114">
  <!-- svg-source:excalidraw -->
  
  <defs>
    <style>
      @font-face {
        font-family: "Virgil";
        src: url("https://excalidraw.com/Virgil.woff2");
      }
      @font-face {
        font-family: "Cascadia";
        src: url("https://excalidraw.com/Cascadia.woff2");
      }
    </style>
  </defs>
  <rect x="0" y="0" width="1217" height="1114" fill="#ffffff"></rect><g stroke-linecap="round" transform="translate(10 144) rotate(0 432 263)"><path d="M0 0 C345.42 0, 690.85 0, 864 0 M0 0 C199.64 0, 399.27 0, 864 0 M864 0 C864 200.59, 864 401.17, 864 526 M864 0 C864 172.64, 864 345.28, 864 526 M864 526 C526.41 526, 188.81 526, 0 526 M864 526 C522.33 526, 180.66 526, 0 526 M0 526 C0 349.12, 0 172.23, 0 0 M0 526 C0 366.69, 0 207.38, 0 0" stroke="#000000" stroke-width="1" fill="none"></path></g><g stroke-linecap="round" transform="translate(11 143) rotate(0 101 212)"><path d="M0 0 C64.57 0, 129.13 0, 202 0 M0 0 C61.59 0, 123.18 0, 202 0 M202 0 C202 142.44, 202 284.87, 202 424 M202 0 C202 133.35, 202 266.71, 202 424 M202 424 C143.1 424, 84.21 424, 0 424 M202 424 C159.7 424, 117.41 424, 0 424 M0 424 C0 338.7, 0 253.39, 0 0 M0 424 C0 287.04, 0 150.08, 0 0" stroke="#000000" stroke-width="1" fill="none"></path></g><g stroke-linecap="round" transform="translate(673 145) rotate(0 101 156.5)"><path d="M0 0 C73.96 0, 147.93 0, 202 0 M0 0 C73.95 0, 147.9 0, 202 0 M202 0 C202 80.56, 202 161.11, 202 313 M202 0 C202 72.32, 202 144.65, 202 313 M202 313 C135.24 313, 68.48 313, 0 313 M202 313 C144.94 313, 87.88 313, 0 313 M0 313 C0 246.43, 0 179.86, 0 0 M0 313 C0 237.47, 0 161.95, 0 0" stroke="#000000" stroke-width="1" fill="none"></path></g><g stroke-linecap="round" transform="translate(14 567) rotate(0 432 51)"><path d="M0 0 C234.21 0, 468.43 0, 864 0 M0 0 C268.12 0, 536.25 0, 864 0 M864 0 C864 34.88, 864 69.77, 864 102 M864 0 C864 38.38, 864 76.77, 864 102 M864 102 C673.4 102, 482.79 102, 0 102 M864 102 C542.51 102, 221.02 102, 0 102 M0 102 C0 80.63, 0 59.26, 0 0 M0 102 C0 66.14, 0 30.28, 0 0" stroke="#000000" stroke-width="1" fill="none"></path></g><g stroke-linecap="round" transform="translate(405 600) rotate(0 21.5 18)"><path d="M43 18 C43 19.04, 42.89 20.1, 42.67 21.13 C42.46 22.15, 42.13 23.18, 41.7 24.16 C41.28 25.14, 40.74 26.1, 40.12 27 C39.5 27.9, 38.77 28.77, 37.97 29.57 C37.17 30.37, 36.27 31.12, 35.32 31.79 C34.37 32.46, 33.33 33.07, 32.25 33.59 C31.17 34.11, 30.02 34.56, 28.85 34.91 C27.68 35.27, 26.46 35.55, 25.23 35.73 C24.01 35.91, 22.74 36, 21.5 36 C20.26 36, 18.99 35.91, 17.77 35.73 C16.54 35.55, 15.32 35.27, 14.15 34.91 C12.98 34.56, 11.83 34.11, 10.75 33.59 C9.67 33.07, 8.63 32.46, 7.68 31.79 C6.73 31.12, 5.83 30.37, 5.03 29.57 C4.23 28.77, 3.5 27.9, 2.88 27 C2.26 26.1, 1.72 25.14, 1.3 24.16 C0.87 23.18, 0.54 22.15, 0.33 21.13 C0.11 20.1, 0 19.04, 0 18 C0 16.96, 0.11 15.9, 0.33 14.87 C0.54 13.85, 0.87 12.82, 1.3 11.84 C1.72 10.86, 2.26 9.9, 2.88 9 C3.5 8.1, 4.23 7.23, 5.03 6.43 C5.83 5.63, 6.73 4.88, 7.68 4.21 C8.63 3.54, 9.67 2.93, 10.75 2.41 C11.83 1.89, 12.98 1.44, 14.15 1.09 C15.32 0.73, 16.54 0.45, 17.77 0.27 C18.99 0.09, 20.26 0, 21.5 0 C22.74 0, 24.01 0.09, 25.23 0.27 C26.46 0.45, 27.68 0.73, 28.85 1.09 C30.02 1.44, 31.17 1.89, 32.25 2.41 C33.33 2.93, 34.37 3.54, 35.32 4.21 C36.27 4.88, 37.17 5.63, 37.97 6.43 C38.77 7.23, 39.5 8.1, 40.12 9 C40.74 9.9, 41.28 10.86, 41.7 11.84 C42.13 12.82, 42.46 13.85, 42.67 14.87 C42.89 15.9, 42.95 17.48, 43 18 C43.05 18.52, 43.05 17.48, 43 18" stroke="#000000" stroke-width="1" fill="none"></path></g><g stroke-linecap="round" transform="translate(382 613) rotate(0 4.5 5.5)"><path d="M5 0 C6.15 1.73, 7.31 3.46, 9 6 M5 0 C6.17 1.75, 7.34 3.51, 9 6 M9 6 C7.64 7.7, 6.27 9.41, 5 11 M9 6 C7.47 7.91, 5.94 9.83, 5 11 M5 11 C3.78 9.78, 2.55 8.55, 0 6 M5 11 C3.46 9.46, 1.92 7.92, 0 6 M0 6 C1.04 4.75, 2.08 3.5, 5 0 M0 6 C1.8 3.84, 3.61 1.67, 5 0" stroke="#000000" stroke-width="1" fill="none"></path></g><g stroke-linecap="round" transform="translate(469.5 613.5) rotate(0 4.5 5.5)"><path d="M5 0 C6.59 2.38, 8.18 4.76, 9 6 M5 0 C6.48 2.22, 7.96 4.44, 9 6 M9 6 C8.1 7.13, 7.19 8.26, 5 11 M9 6 C7.83 7.47, 6.65 8.93, 5 11 M5 11 C3.38 9.38, 1.77 7.77, 0 6 M5 11 C3.14 9.14, 1.27 7.27, 0 6 M0 6 C1.9 3.72, 3.8 1.44, 5 0 M0 6 C1.74 3.91, 3.48 1.82, 5 0" stroke="#000000" stroke-width="1" fill="none"></path></g><g stroke-linecap="round" transform="translate(40 601) rotate(0 22 17)"><path d="M0 0 C9.76 0, 19.51 0, 44 0 M0 0 C12.21 0, 24.42 0, 44 0 M44 0 C44 10.07, 44 20.14, 44 34 M44 0 C44 8.94, 44 17.88, 44 34 M44 34 C29.66 34, 15.31 34, 0 34 M44 34 C33.39 34, 22.78 34, 0 34 M0 34 C0 24.36, 0 14.72, 0 0 M0 34 C0 27.08, 0 20.16, 0 0" stroke="#000000" stroke-width="1" fill="none"></path></g><g transform="translate(101 594) rotate(0 49 25)"><text x="0" y="18" font-family="Virgil, Segoe UI Emoji" font-size="20px" fill="#000000" text-anchor="start" style="white-space: pre;" direction="ltr">song name</text><text x="0" y="43" font-family="Virgil, Segoe UI Emoji" font-size="20px" fill="#000000" text-anchor="start" style="white-space: pre;" direction="ltr">artist</text></g><g stroke-linecap="round" transform="translate(767 608) rotate(0 42 11)"><path d="M0 0 C23.81 0, 47.62 0, 84 0 M0 0 C17.1 0, 34.19 0, 84 0 M84 0 C84 5.48, 84 10.97, 84 22 M84 0 C84 6.3, 84 12.6, 84 22 M84 22 C62.47 22, 40.94 22, 0 22 M84 22 C64.95 22, 45.9 22, 0 22 M0 22 C0 14.67, 0 7.34, 0 0 M0 22 C0 17.17, 0 12.35, 0 0" stroke="#000000" stroke-width="1" fill="none"></path></g><g stroke-linecap="round" transform="translate(673 403) rotate(0 100.5 28)"><path d="M0 0 C64.01 0, 128.02 0, 201 0 M0 0 C49.55 0, 99.09 0, 201 0 M201 0 C201 16.27, 201 32.55, 201 56 M201 0 C201 11.54, 201 23.08, 201 56 M201 56 C145.28 56, 89.57 56, 0 56 M201 56 C155.37 56, 109.74 56, 0 56 M0 56 C0 36.86, 0 17.71, 0 0 M0 56 C0 37.68, 0 19.36, 0 0" stroke="#000000" stroke-width="1" fill="none"></path></g><g stroke-linecap="round" transform="translate(695 422) rotate(0 82 10.5)"><path d="M0 0 C54.61 0, 109.22 0, 164 0 M0 0 C40.02 0, 80.04 0, 164 0 M164 0 C164 7.62, 164 15.24, 164 21 M164 0 C164 6.71, 164 13.42, 164 21 M164 21 C129.96 21, 95.92 21, 0 21 M164 21 C123.14 21, 82.29 21, 0 21 M0 21 C0 16.7, 0 12.4, 0 0 M0 21 C0 13.02, 0 5.03, 0 0" stroke="#000000" stroke-width="1" fill="none"></path></g><g stroke-linecap="round" transform="translate(673 458) rotate(0 102 54)"><path d="M0 0 C53.3 0, 106.6 0, 204 0 M0 0 C64.06 0, 128.12 0, 204 0 M204 0 C204 36.29, 204 72.57, 204 108 M204 0 C204 31.74, 204 63.49, 204 108 M204 108 C155.29 108, 106.58 108, 0 108 M204 108 C160.54 108, 117.08 108, 0 108 M0 108 C0 73.73, 0 39.45, 0 0 M0 108 C0 76.06, 0 44.12, 0 0" stroke="#000000" stroke-width="1" fill="none"></path></g><g transform="translate(691 156) rotate(0 73 12.5)"><text x="0" y="18" font-family="Virgil, Segoe UI Emoji" font-size="20px" fill="#000000" text-anchor="start" style="white-space: pre;" direction="ltr">chat messages</text></g><g transform="translate(40 158) rotate(0 22.5 25)"><text x="0" y="18" font-family="Virgil, Segoe UI Emoji" font-size="20px" fill="#000000" text-anchor="start" style="white-space: pre;" direction="ltr">home</text><text x="0" y="43" font-family="Virgil, Segoe UI Emoji" font-size="20px" fill="#000000" text-anchor="start" style="white-space: pre;" direction="ltr"></text></g><g stroke-linecap="round"><g transform="translate(15 228) rotate(0 93 0)"><path d="M0 0 C31 0, 155 0, 186 0 M0 0 C31 0, 155 0, 186 0" stroke="#000000" stroke-width="1" fill="none"></path></g></g><g transform="translate(34 188) rotate(0 32 25)"><text x="0" y="18" font-family="Virgil, Segoe UI Emoji" font-size="20px" fill="#000000" text-anchor="start" style="white-space: pre;" direction="ltr">search</text><text x="0" y="43" font-family="Virgil, Segoe UI Emoji" font-size="20px" fill="#000000" text-anchor="start" style="white-space: pre;" direction="ltr"></text></g><g stroke-linecap="round"><g transform="translate(15 281) rotate(0 91 1)"><path d="M0 0 C30.33 0.33, 151.67 1.67, 182 2 M0 0 C30.33 0.33, 151.67 1.67, 182 2" stroke="#000000" stroke-width="1" fill="none"></path></g></g><g transform="translate(43 236) rotate(0 39 35)"><text x="0" y="25" font-family="Virgil, Segoe UI Emoji" font-size="28px" fill="#000000" text-anchor="start" style="white-space: pre;" direction="ltr">Party</text><text x="0" y="60" font-family="Virgil, Segoe UI Emoji" font-size="28px" fill="#000000" text-anchor="start" style="white-space: pre;" direction="ltr"></text></g><g transform="translate(28 328) rotate(0 77 12.5)"><text x="0" y="18" font-family="Virgil, Segoe UI Emoji" font-size="20px" fill="#000000" text-anchor="start" style="white-space: pre;" direction="ltr">list of playlists</text></g><g stroke-linecap="round" transform="translate(229 179) rotate(0 66 152.5)"><path d="M0 0 C28.78 0, 57.56 0, 132 0 M0 0 C27.11 0, 54.22 0, 132 0 M132 0 C132 107.32, 132 214.63, 132 305 M132 0 C132 111.05, 132 222.1, 132 305 M132 305 C99.51 305, 67.02 305, 0 305 M132 305 C102.39 305, 72.77 305, 0 305 M0 305 C0 194.89, 0 84.78, 0 0 M0 305 C0 241.41, 0 177.82, 0 0" stroke="#000000" stroke-width="1" fill="none"></path></g><g stroke-linecap="round" transform="translate(382 179.5) rotate(0 137 150)"><path d="M0 0 C108 0, 216.01 0, 274 0 M0 0 C93.99 0, 187.98 0, 274 0 M274 0 C274 88.99, 274 177.98, 274 300 M274 0 C274 74.34, 274 148.69, 274 300 M274 300 C182.74 300, 91.48 300, 0 300 M274 300 C201.28 300, 128.57 300, 0 300 M0 300 C0 191.15, 0 82.3, 0 0 M0 300 C0 185.58, 0 71.17, 0 0" stroke="#000000" stroke-width="1" fill="none"></path></g><g transform="translate(240 192.5) rotate(0 53.5 20)"><text x="0" y="14" font-family="Virgil, Segoe UI Emoji" font-size="16px" fill="#000000" text-anchor="start" style="white-space: pre;" direction="ltr">List of rooms</text><text x="0" y="34" font-family="Virgil, Segoe UI Emoji" font-size="16px" fill="#000000" text-anchor="start" style="white-space: pre;" direction="ltr"></text></g><g stroke-linecap="round" transform="translate(239 426) rotate(0 51.5 11)"><path d="M5.5 0 M5.5 0 C42.26 0, 79.01 0, 97.5 0 M5.5 0 C36.36 0, 67.22 0, 97.5 0 M97.5 0 C101.17 0, 103 1.83, 103 5.5 M97.5 0 C101.17 0, 103 1.83, 103 5.5 M103 5.5 C103 8.45, 103 11.39, 103 16.5 M103 5.5 C103 8.37, 103 11.24, 103 16.5 M103 16.5 C103 20.17, 101.17 22, 97.5 22 M103 16.5 C103 20.17, 101.17 22, 97.5 22 M97.5 22 C63.95 22, 30.4 22, 5.5 22 M97.5 22 C76.58 22, 55.66 22, 5.5 22 M5.5 22 C1.83 22, 0 20.17, 0 16.5 M5.5 22 C1.83 22, 0 20.17, 0 16.5 M0 16.5 C0 12.91, 0 9.32, 0 5.5 M0 16.5 C0 13.52, 0 10.55, 0 5.5 M0 5.5 C0 1.83, 1.83 0, 5.5 0 M0 5.5 C0 1.83, 1.83 0, 5.5 0" stroke="#000000" stroke-width="4" fill="none"></path></g><g stroke-linecap="round" transform="translate(243.5 459) rotate(0 18.5 6.5)"><path d="M3.25 0 M3.25 0 C10.41 0, 17.57 0, 33.75 0 M3.25 0 C13.2 0, 23.15 0, 33.75 0 M33.75 0 C35.92 0, 37 1.08, 37 3.25 M33.75 0 C35.92 0, 37 1.08, 37 3.25 M37 3.25 C37 5.26, 37 7.27, 37 9.75 M37 3.25 C37 5.34, 37 7.42, 37 9.75 M37 9.75 C37 11.92, 35.92 13, 33.75 13 M37 9.75 C37 11.92, 35.92 13, 33.75 13 M33.75 13 C22.94 13, 12.13 13, 3.25 13 M33.75 13 C24.4 13, 15.04 13, 3.25 13 M3.25 13 C1.08 13, 0 11.92, 0 9.75 M3.25 13 C1.08 13, 0 11.92, 0 9.75 M0 9.75 C0 7.19, 0 4.64, 0 3.25 M0 9.75 C0 7.9, 0 6.05, 0 3.25 M0 3.25 C0 1.08, 1.08 0, 3.25 0 M0 3.25 C0 1.08, 1.08 0, 3.25 0" stroke="#000000" stroke-width="4" fill="none"></path></g><g stroke-linecap="round" transform="translate(298.5 459.5) rotate(0 18.5 6.5)"><path d="M3.25 0 M3.25 0 C9.76 0, 16.26 0, 33.75 0 M3.25 0 C10.16 0, 17.07 0, 33.75 0 M33.75 0 C35.92 0, 37 1.08, 37 3.25 M33.75 0 C35.92 0, 37 1.08, 37 3.25 M37 3.25 C37 5.27, 37 7.28, 37 9.75 M37 3.25 C37 4.99, 37 6.73, 37 9.75 M37 9.75 C37 11.92, 35.92 13, 33.75 13 M37 9.75 C37 11.92, 35.92 13, 33.75 13 M33.75 13 C25.81 13, 17.87 13, 3.25 13 M33.75 13 C23.12 13, 12.5 13, 3.25 13 M3.25 13 C1.08 13, 0 11.92, 0 9.75 M3.25 13 C1.08 13, 0 11.92, 0 9.75 M0 9.75 C0 7.64, 0 5.54, 0 3.25 M0 9.75 C0 8.2, 0 6.65, 0 3.25 M0 3.25 C0 1.08, 1.08 0, 3.25 0 M0 3.25 C0 1.08, 1.08 0, 3.25 0" stroke="#000000" stroke-width="1" fill="none"></path></g><g transform="translate(289 370) rotate(0 -32 187.5)" stroke="none" fill="#000000"><path d="M 1.49,0.44 Q 1.49,0.44 0.02,5.32 -1.44,10.20 -4.71,16.70 -7.97,23.20 -11.94,30.80 -15.91,38.40 -20.77,47.39 -25.62,56.37 -30.25,66.75 -34.88,77.13 -39.45,87.88 -44.01,98.62 -47.67,108.34 -51.33,118.06 -54.31,127.06 -57.30,136.06 -58.85,143.28 -60.39,150.50 -61.05,156.12 -61.70,161.74 -61.98,166.42 -62.26,171.10 -62.09,174.76 -61.93,178.42 -61.57,181.69 -61.22,184.96 -61.06,188.13 -60.91,191.30 -60.84,194.95 -60.78,198.60 -60.75,202.45 -60.72,206.30 -60.42,210.48 -60.13,214.66 -60.29,219.40 -60.44,224.14 -60.51,228.70 -60.58,233.26 -60.61,237.78 -60.64,242.31 -60.65,246.24 -60.66,250.18 -60.67,253.58 -60.67,256.97 -60.68,261.29 -60.68,265.61 -59.82,271.08 -58.97,276.56 -58.31,282.40 -57.66,288.25 -56.81,293.56 -55.96,298.88 -55.31,303.76 -54.65,308.64 -53.81,312.96 -52.96,317.29 -52.31,321.17 -51.66,325.06 -50.82,328.38 -49.98,331.69 -49.05,334.82 -48.12,337.95 -47.15,341.31 -46.17,344.67 -44.65,347.71 -43.13,350.75 -41.65,352.87 -40.17,354.99 -39.16,356.49 -38.15,357.98 -37.04,358.50 -35.92,359.02 -34.26,360.18 -32.59,361.34 -31.77,362.35 -30.95,363.36 -30.10,364.62 -29.24,365.87 -28.71,367.24 -28.18,368.61 -26.85,371.37 -25.51,374.13 -25.44,374.55 -25.37,374.97 -25.43,375.39 -25.50,375.81 -25.69,376.19 -25.89,376.57 -26.20,376.86 -26.50,377.16 -26.89,377.34 -27.27,377.52 -27.69,377.57 -28.11,377.62 -28.53,377.53 -28.95,377.44 -29.31,377.23 -29.68,377.01 -29.96,376.69 -30.23,376.37 -30.39,375.98 -30.56,375.58 -30.58,375.16 -30.61,374.73 -30.50,374.32 -30.39,373.91 -30.15,373.56 -29.92,373.21 -29.58,372.95 -29.25,372.68 -28.84,372.55 -28.44,372.41 -28.02,372.40 -27.59,372.40 -27.19,372.53 -26.78,372.66 -26.44,372.92 -26.10,373.17 -25.86,373.52 -25.62,373.87 -25.50,374.28 -25.39,374.69 -25.41,375.11 -25.42,375.54 -25.58,375.93 -25.73,376.33 -26.00,376.66 -26.28,376.98 -26.64,377.20 -27.00,377.43 -27.42,377.52 -27.83,377.62 -28.25,377.57 -28.68,377.53 -29.06,377.36 -29.45,377.18 -29.76,376.89 -30.07,376.60 -30.27,376.23 -30.48,375.86 -30.48,375.86 -30.48,375.86 -31.17,373.99 -31.87,372.13 -32.54,370.31 -33.20,368.50 -34.01,367.30 -34.82,366.11 -35.64,364.89 -36.45,363.67 -37.80,362.48 -39.14,361.29 -39.88,360.42 -40.61,359.54 -41.47,358.01 -42.33,356.49 -43.91,354.21 -45.48,351.92 -47.09,348.66 -48.69,345.41 -49.67,342.05 -50.64,338.70 -51.58,335.52 -52.53,332.34 -53.39,328.92 -54.25,325.49 -54.90,321.64 -55.54,317.79 -56.40,313.39 -57.26,308.98 -57.91,304.14 -58.55,299.30 -59.41,293.92 -60.27,288.54 -60.92,282.75 -61.57,276.96 -62.44,271.28 -63.31,265.61 -63.30,261.29 -63.30,256.97 -63.30,253.57 -63.29,250.17 -63.28,246.23 -63.27,242.29 -63.24,237.75 -63.21,233.22 -63.14,228.63 -63.07,224.05 -62.91,219.45 -62.75,214.85 -63.05,210.59 -63.35,206.32 -63.38,202.49 -63.41,198.65 -63.47,195.04 -63.53,191.43 -63.68,188.34 -63.83,185.24 -64.20,181.89 -64.56,178.54 -64.73,174.74 -64.90,170.95 -64.61,166.19 -64.33,161.44 -63.66,155.69 -62.99,149.94 -61.41,142.59 -59.83,135.23 -56.83,126.17 -53.83,117.12 -50.16,107.34 -46.49,97.57 -41.93,86.79 -37.37,76.02 -32.72,65.54 -28.06,55.06 -23.23,46.08 -18.41,37.11 -14.48,29.50 -10.56,21.90 -7.43,15.62 -4.30,9.34 -2.90,4.45 -1.49,-0.44 -1.42,-0.61 -1.34,-0.78 -1.23,-0.93 -1.12,-1.08 -0.97,-1.20 -0.82,-1.32 -0.65,-1.40 -0.48,-1.48 -0.30,-1.52 -0.11,-1.55 0.06,-1.54 0.25,-1.54 0.43,-1.48 0.61,-1.43 0.78,-1.33 0.94,-1.24 1.07,-1.11 1.21,-0.98 1.31,-0.82 1.41,-0.66 1.47,-0.48 1.53,-0.30 1.54,-0.11 1.56,0.06 1.52,0.25 1.49,0.44 1.49,0.44 L 1.49,0.44 Z"></path></g><g transform="translate(224 738) rotate(0 23 4.5)" stroke="none" fill="#000000"><path d="M 0.87,-1.75 Q 0.87,-1.75 2.58,-0.86 4.29,0.03 7.03,1.63 9.78,3.23 13.77,5.35 17.76,7.48 21.72,9.24 25.67,11.00 29.06,12.34 32.45,13.67 34.49,14.54 36.54,15.42 37.66,15.65 38.79,15.87 38.47,13.08 38.15,10.28 38.20,7.88 38.25,5.48 39.20,2.50 40.15,-0.47 41.47,-2.89 42.79,-5.32 43.19,-6.50 43.58,-7.67 39.75,-6.65 35.92,-5.63 31.67,-5.28 27.43,-4.93 22.50,-4.24 17.57,-3.54 14.27,-3.25 10.96,-2.96 9.88,-2.71 8.79,-2.46 8.58,-2.47 8.37,-2.47 8.17,-2.53 7.96,-2.58 7.78,-2.69 7.60,-2.79 7.44,-2.93 7.29,-3.07 7.17,-3.25 7.06,-3.42 6.99,-3.62 6.92,-3.82 6.90,-4.03 6.88,-4.24 6.91,-4.44 6.94,-4.65 7.02,-4.85 7.10,-5.04 7.22,-5.21 7.34,-5.38 7.50,-5.51 7.66,-5.65 7.85,-5.74 8.04,-5.84 8.24,-5.88 8.45,-5.93 10.39,-5.80 12.33,-5.67 17.12,-5.61 21.90,-5.54 26.82,-5.51 31.73,-5.47 34.39,-5.44 37.06,-5.42 37.90,-5.54 38.75,-5.65 38.95,-5.63 39.14,-5.60 39.33,-5.53 39.52,-5.46 39.68,-5.35 39.84,-5.23 39.98,-5.08 40.11,-4.93 40.20,-4.76 40.29,-4.58 40.34,-4.39 40.39,-4.19 40.39,-3.99 40.39,-3.80 40.34,-3.60 40.29,-3.41 40.20,-3.23 40.11,-3.06 39.97,-2.91 39.84,-2.76 39.68,-2.65 39.51,-2.53 39.33,-2.46 39.14,-2.39 38.94,-2.37 38.74,-2.34 35.56,-2.44 32.38,-2.54 28.25,-2.56 24.11,-2.58 20.39,-2.31 16.67,-2.04 14.49,-1.92 12.31,-1.81 11.52,-1.22 10.73,-0.62 10.53,-0.58 10.34,-0.53 10.13,-0.53 9.93,-0.53 9.73,-0.58 9.54,-0.64 9.36,-0.73 9.18,-0.83 9.03,-0.97 8.88,-1.10 8.76,-1.27 8.65,-1.44 8.58,-1.63 8.51,-1.82 8.48,-2.02 8.46,-2.23 8.49,-2.43 8.52,-2.63 8.59,-2.82 8.66,-3.01 8.78,-3.18 8.90,-3.34 9.05,-3.48 9.21,-3.61 9.39,-3.70 9.57,-3.79 11.29,-3.83 13.02,-3.88 16.74,-3.79 20.46,-3.70 23.49,-3.64 26.52,-3.58 27.52,-3.68 28.52,-3.79 28.73,-3.76 28.95,-3.74 29.15,-3.66 29.35,-3.58 29.53,-3.46 29.70,-3.34 29.85,-3.17 29.99,-3.01 30.09,-2.82 30.19,-2.63 30.24,-2.42 30.29,-2.21 30.29,-2.00 30.29,-1.78 30.24,-1.57 30.18,-1.36 30.08,-1.17 29.98,-0.98 29.84,-0.82 29.69,-0.66 29.52,-0.54 29.34,-0.42 29.14,-0.34 28.94,-0.26 28.72,-0.24 28.51,-0.21 27.62,1.04 26.73,2.30 25.83,3.58 24.92,4.86 24.70,5.01 24.47,5.16 24.22,5.25 23.97,5.34 23.70,5.37 23.43,5.40 23.17,5.37 22.90,5.33 22.65,5.23 22.40,5.14 22.18,4.98 21.96,4.83 21.78,4.62 21.60,4.42 21.48,4.18 21.36,3.94 21.30,3.68 21.24,3.42 21.24,3.15 21.24,2.88 21.31,2.62 21.38,2.36 21.50,2.12 21.63,1.88 21.81,1.68 21.99,1.48 23.69,1.59 25.39,1.69 27.71,2.71 30.03,3.73 32.76,4.78 35.48,5.84 36.97,6.51 38.45,7.18 38.65,7.28 38.85,7.38 39.03,7.53 39.20,7.67 39.33,7.86 39.47,8.04 39.55,8.25 39.64,8.46 39.67,8.69 39.70,8.91 39.68,9.13 39.66,9.36 39.58,9.57 39.50,9.79 39.38,9.98 39.26,10.17 39.09,10.32 38.92,10.47 38.73,10.58 38.53,10.69 38.31,10.75 38.09,10.81 37.86,10.82 37.64,10.82 37.42,10.77 37.20,10.72 36.07,12.29 34.94,13.86 33.10,14.58 31.25,15.31 29.25,14.98 27.25,14.65 26.17,14.57 25.09,14.48 24.06,13.92 23.03,13.35 22.49,12.03 21.96,10.70 22.81,8.69 23.66,6.68 25.69,4.58 27.72,2.49 28.72,1.16 29.73,-0.17 29.48,0.25 29.23,0.68 28.93,0.56 28.63,0.45 28.37,0.27 28.10,0.09 27.89,-0.14 27.68,-0.38 27.53,-0.66 27.38,-0.94 27.30,-1.25 27.23,-1.56 27.23,-1.88 27.22,-2.20 27.30,-2.51 27.38,-2.82 27.52,-3.10 27.67,-3.39 27.88,-3.63 28.09,-3.87 28.36,-4.05 28.62,-4.23 28.92,-4.35 29.21,-4.46 29.53,-4.50 29.85,-4.54 30.17,-4.50 30.48,-4.46 32.67,-5.12 34.85,-5.77 35.30,-5.72 35.75,-5.67 36.15,-5.48 36.56,-5.29 36.89,-4.98 37.21,-4.67 37.42,-4.27 37.63,-3.88 37.70,-3.43 37.77,-2.99 37.70,-2.54 37.63,-2.10 37.41,-1.70 37.20,-1.31 36.88,-1.00 36.55,-0.69 36.14,-0.50 35.73,-0.32 35.28,-0.27 34.84,-0.22 34.40,-0.32 33.96,-0.42 33.57,-0.65 33.19,-0.88 32.90,-1.23 32.61,-1.57 32.45,-1.99 32.28,-2.41 32.26,-2.85 32.23,-3.30 32.36,-3.74 32.48,-4.17 32.73,-4.54 32.98,-4.91 33.34,-5.18 33.70,-5.45 34.13,-5.60 34.55,-5.74 35.00,-5.74 35.45,-5.74 35.88,-5.59 36.30,-5.45 36.66,-5.17 37.02,-4.90 37.27,-4.53 37.52,-4.15 37.64,-3.72 37.76,-3.29 37.73,-2.84 37.71,-2.39 37.54,-1.97 37.37,-1.56 37.08,-1.21 36.79,-0.87 36.40,-0.64 36.02,-0.41 35.58,-0.32 35.14,-0.22 35.14,-0.22 35.14,-0.22 33.18,-0.48 31.21,-0.73 30.22,-0.02 29.23,0.68 28.93,0.56 28.63,0.45 28.37,0.27 28.10,0.09 27.89,-0.14 27.68,-0.38 27.53,-0.66 27.38,-0.94 27.30,-1.25 27.23,-1.56 27.23,-1.88 27.22,-2.20 27.30,-2.51 27.38,-2.82 27.52,-3.10 27.67,-3.39 27.88,-3.63 28.09,-3.87 28.36,-4.05 28.62,-4.23 28.92,-4.35 29.21,-4.46 29.53,-4.50 29.85,-4.54 30.16,-4.50 30.48,-4.46 31.05,-4.35 31.62,-4.23 32.84,-3.65 34.06,-3.06 34.64,-1.92 35.21,-0.77 34.20,0.80 33.19,2.38 32.11,3.90 31.04,5.42 29.49,7.77 27.93,10.12 29.45,10.33 30.96,10.53 32.03,10.36 33.11,10.18 34.16,9.87 35.21,9.55 36.83,8.37 38.45,7.18 38.65,7.28 38.85,7.38 39.03,7.53 39.20,7.67 39.33,7.86 39.47,8.04 39.55,8.25 39.64,8.46 39.67,8.69 39.70,8.91 39.68,9.13 39.66,9.36 39.58,9.57 39.50,9.79 39.38,9.98 39.26,10.17 39.09,10.32 38.92,10.47 38.73,10.58 38.53,10.69 38.31,10.75 38.09,10.81 37.86,10.82 37.64,10.82 37.42,10.77 37.20,10.72 35.74,9.98 34.28,9.24 31.44,8.33 28.60,7.42 26.76,6.14 24.92,4.86 24.70,5.01 24.47,5.16 24.22,5.25 23.97,5.34 23.70,5.37 23.43,5.40 23.17,5.37 22.90,5.33 22.65,5.24 22.40,5.14 22.18,4.98 21.96,4.83 21.78,4.62 21.60,4.42 21.48,4.18 21.36,3.94 21.30,3.68 21.24,3.42 21.24,3.15 21.24,2.88 21.31,2.62 21.38,2.36 21.50,2.12 21.63,1.88 21.81,1.68 21.99,1.48 23.17,0.37 24.36,-0.73 25.30,-1.33 26.24,-1.93 27.38,-2.86 28.52,-3.79 28.73,-3.76 28.95,-3.74 29.15,-3.66 29.35,-3.58 29.53,-3.46 29.70,-3.34 29.85,-3.17 29.99,-3.01 30.09,-2.82 30.19,-2.63 30.24,-2.42 30.29,-2.21 30.29,-2.00 30.29,-1.78 30.24,-1.57 30.18,-1.36 30.08,-1.17 29.98,-0.98 29.84,-0.82 29.69,-0.66 29.52,-0.54 29.34,-0.42 29.14,-0.34 28.94,-0.26 28.72,-0.24 28.51,-0.21 27.51,-0.33 26.51,-0.44 23.47,-0.41 20.43,-0.37 16.65,-0.33 12.86,-0.30 11.80,-0.46 10.73,-0.62 10.53,-0.58 10.34,-0.53 10.13,-0.53 9.93,-0.53 9.73,-0.58 9.54,-0.64 9.36,-0.73 9.18,-0.83 9.03,-0.97 8.88,-1.10 8.76,-1.27 8.65,-1.44 8.58,-1.63 8.51,-1.82 8.48,-2.02 8.46,-2.23 8.49,-2.43 8.52,-2.63 8.59,-2.82 8.66,-3.01 8.78,-3.18 8.90,-3.34 9.05,-3.48 9.21,-3.61 9.39,-3.70 9.57,-3.79 9.63,-3.86 9.68,-3.92 10.90,-4.23 12.12,-4.54 14.29,-4.67 16.46,-4.80 20.29,-5.11 24.11,-5.41 28.24,-5.43 32.38,-5.45 35.56,-5.55 38.75,-5.65 38.95,-5.63 39.14,-5.60 39.33,-5.53 39.52,-5.46 39.68,-5.35 39.84,-5.23 39.98,-5.08 40.11,-4.93 40.20,-4.76 40.29,-4.58 40.34,-4.39 40.39,-4.19 40.39,-4.00 40.39,-3.80 40.34,-3.60 40.29,-3.41 40.20,-3.23 40.11,-3.06 39.97,-2.91 39.84,-2.76 39.68,-2.65 39.51,-2.53 39.33,-2.46 39.14,-2.39 38.94,-2.37 38.74,-2.34 37.90,-2.46 37.05,-2.58 34.39,-2.57 31.72,-2.55 26.80,-2.54 21.89,-2.52 17.06,-2.51 12.23,-2.49 10.51,-2.48 8.79,-2.46 8.58,-2.47 8.37,-2.47 8.17,-2.53 7.96,-2.58 7.78,-2.69 7.60,-2.79 7.44,-2.93 7.29,-3.07 7.17,-3.25 7.06,-3.42 6.99,-3.62 6.92,-3.82 6.90,-4.03 6.88,-4.24 6.91,-4.44 6.94,-4.65 7.02,-4.85 7.10,-5.04 7.22,-5.21 7.34,-5.38 7.50,-5.51 7.66,-5.65 7.85,-5.74 8.04,-5.84 8.24,-5.88 8.45,-5.93 9.56,-5.95 10.67,-5.98 13.88,-6.33 17.10,-6.68 22.10,-7.49 27.10,-8.30 31.33,-8.79 35.56,-9.28 38.82,-9.69 42.08,-10.10 43.63,-10.04 45.18,-9.98 46.03,-8.27 46.88,-6.56 46.23,-5.20 45.58,-3.84 44.47,-1.65 43.35,0.53 42.61,3.00 41.86,5.47 42.00,7.79 42.13,10.10 42.32,12.06 42.52,14.03 42.65,15.56 42.77,17.10 41.34,18.31 39.90,19.51 38.85,19.28 37.80,19.05 36.62,18.56 35.44,18.06 33.41,17.24 31.39,16.43 27.92,15.12 24.44,13.82 20.36,12.09 16.28,10.36 12.19,8.32 8.10,6.27 5.35,4.84 2.60,3.41 0.86,2.58 -0.87,1.75 -1.07,1.62 -1.27,1.49 -1.43,1.32 -1.59,1.14 -1.71,0.94 -1.82,0.73 -1.88,0.50 -1.94,0.27 -1.95,0.03 -1.95,-0.19 -1.90,-0.42 -1.85,-0.66 -1.74,-0.87 -1.64,-1.08 -1.48,-1.26 -1.33,-1.44 -1.14,-1.58 -0.94,-1.72 -0.72,-1.81 -0.50,-1.89 -0.27,-1.93 -0.03,-1.96 0.19,-1.94 0.43,-1.91 0.65,-1.83 0.87,-1.75 0.87,-1.75 L 0.87,-1.75 Z"></path></g><g stroke-linecap="round" transform="translate(276 785) rotate(0 97.5 159.5)"><path d="M0 0 C42.82 0, 85.63 0, 195 0 M0 0 C71.82 0, 143.64 0, 195 0 M195 0 C195 77.94, 195 155.87, 195 319 M195 0 C195 122.95, 195 245.91, 195 319 M195 319 C119.34 319, 43.69 319, 0 319 M195 319 C146.53 319, 98.06 319, 0 319 M0 319 C0 224.74, 0 130.48, 0 0 M0 319 C0 202.87, 0 86.75, 0 0" stroke="#000000" stroke-width="1" fill="none"></path></g><g transform="translate(307 810) rotate(0 55 20)"><text x="0" y="14" font-family="Virgil, Segoe UI Emoji" font-size="16px" fill="#000000" text-anchor="start" style="white-space: pre;" direction="ltr">group members</text><text x="0" y="34" font-family="Virgil, Segoe UI Emoji" font-size="16px" fill="#000000" text-anchor="start" style="white-space: pre;" direction="ltr"></text></g><g transform="translate(72 793) rotate(0 98.5 20)"><text x="0" y="14" font-family="Virgil, Segoe UI Emoji" font-size="16px" fill="#000000" text-anchor="start" style="white-space: pre;" direction="ltr">If a user joins a room</text><text x="0" y="34" font-family="Virgil, Segoe UI Emoji" font-size="16px" fill="#000000" text-anchor="start" style="white-space: pre;" direction="ltr">we display group members</text></g><g transform="translate(403 194) rotate(0 43 10)"><text x="0" y="14" font-family="Virgil, Segoe UI Emoji" font-size="16px" fill="#000000" text-anchor="start" style="white-space: pre;" direction="ltr">song queue</text></g><g transform="translate(720 494) rotate(0 43 10)"><text x="0" y="14" font-family="Virgil, Segoe UI Emoji" font-size="16px" fill="#000000" text-anchor="start" style="white-space: pre;" direction="ltr">song queue</text></g><g transform="translate(401 237) rotate(0 82.99999999999989 10)"><text x="0" y="13.999999999999982" font-family="Virgil, Segoe UI Emoji" font-size="15.999999999999988px" fill="#000000" text-anchor="start" style="white-space: pre;" direction="ltr">name artist duration</text></g><g stroke-linecap="round" transform="translate(608 239) rotate(0 8 8)"><path d="M16 8 C16 8.46, 15.96 8.93, 15.88 9.39 C15.8 9.85, 15.68 10.3, 15.52 10.74 C15.36 11.17, 15.16 11.6, 14.93 12 C14.7 12.4, 14.43 12.79, 14.13 13.14 C13.83 13.5, 13.5 13.83, 13.14 14.13 C12.79 14.43, 12.4 14.7, 12 14.93 C11.6 15.16, 11.17 15.36, 10.74 15.52 C10.3 15.68, 9.85 15.8, 9.39 15.88 C8.93 15.96, 8.46 16, 8 16 C7.54 16, 7.07 15.96, 6.61 15.88 C6.15 15.8, 5.7 15.68, 5.26 15.52 C4.83 15.36, 4.4 15.16, 4 14.93 C3.6 14.7, 3.21 14.43, 2.86 14.13 C2.5 13.83, 2.17 13.5, 1.87 13.14 C1.57 12.79, 1.3 12.4, 1.07 12 C0.84 11.6, 0.64 11.17, 0.48 10.74 C0.32 10.3, 0.2 9.85, 0.12 9.39 C0.04 8.93, 0 8.46, 0 8 C0 7.54, 0.04 7.07, 0.12 6.61 C0.2 6.15, 0.32 5.7, 0.48 5.26 C0.64 4.83, 0.84 4.4, 1.07 4 C1.3 3.6, 1.57 3.21, 1.87 2.86 C2.17 2.5, 2.5 2.17, 2.86 1.87 C3.21 1.57, 3.6 1.3, 4 1.07 C4.4 0.84, 4.83 0.64, 5.26 0.48 C5.7 0.32, 6.15 0.2, 6.61 0.12 C7.07 0.04, 7.54 0, 8 0 C8.46 0, 8.93 0.04, 9.39 0.12 C9.85 0.2, 10.3 0.32, 10.74 0.48 C11.17 0.64, 11.6 0.84, 12 1.07 C12.4 1.3, 12.79 1.57, 13.14 1.87 C13.5 2.17, 13.83 2.5, 14.13 2.86 C14.43 3.21, 14.7 3.6, 14.93 4 C15.16 4.4, 15.36 4.83, 15.52 5.26 C15.68 5.7, 15.8 6.15, 15.88 6.61 C15.96 7.07, 15.98 7.77, 16 8 C16.02 8.23, 16.02 7.77, 16 8" stroke="#000000" stroke-width="1" fill="none"></path></g><g transform="translate(617 243) rotate(0 25 -98.5)" stroke="none" fill="#000000"><path d="M -1.50,-0.42 Q -1.50,-0.42 -0.90,-2.43 -0.30,-4.44 1.12,-8.48 2.56,-12.53 4.59,-19.38 6.63,-26.22 8.94,-35.16 11.25,-44.09 13.38,-54.19 15.51,-64.30 17.28,-74.61 19.05,-84.93 20.67,-95.07 22.28,-105.21 24.13,-114.72 25.97,-124.22 28.20,-132.89 30.43,-141.57 33.40,-149.89 36.38,-158.22 38.78,-166.30 41.17,-174.38 43.06,-180.70 44.94,-187.02 46.05,-190.04 47.15,-193.05 47.95,-195.25 48.76,-197.45 48.86,-197.63 48.97,-197.82 49.13,-197.96 49.28,-198.10 49.48,-198.19 49.68,-198.27 49.89,-198.29 50.10,-198.31 50.31,-198.26 50.51,-198.20 50.69,-198.09 50.87,-197.98 51.01,-197.81 51.14,-197.64 51.21,-197.44 51.29,-197.24 51.29,-197.03 51.30,-196.82 51.24,-196.62 51.18,-196.41 51.05,-196.24 50.93,-196.07 50.75,-195.94 50.58,-195.82 50.38,-195.75 50.17,-195.69 49.96,-195.70 49.75,-195.70 49.55,-195.78 49.35,-195.85 49.18,-195.98 49.02,-196.11 48.90,-196.29 48.79,-196.47 48.73,-196.68 48.68,-196.89 48.70,-197.10 48.72,-197.31 48.80,-197.51 48.89,-197.70 49.03,-197.86 49.17,-198.02 49.35,-198.13 49.54,-198.23 49.75,-198.27 49.96,-198.31 50.17,-198.28 50.38,-198.25 50.57,-198.16 50.76,-198.06 50.91,-197.91 51.06,-197.76 51.16,-197.57 51.25,-197.38 51.28,-197.17 51.31,-196.96 51.27,-196.75 51.23,-196.54 51.23,-196.54 51.23,-196.54 50.43,-194.34 49.62,-192.14 48.55,-189.21 47.47,-186.27 45.59,-179.95 43.71,-173.62 41.29,-165.48 38.87,-157.33 35.94,-149.11 33.00,-140.90 30.80,-132.31 28.59,-123.72 26.76,-114.25 24.94,-104.79 23.33,-94.63 21.72,-84.48 19.95,-74.10 18.19,-63.73 16.07,-53.57 13.94,-43.40 11.65,-34.41 9.35,-25.42 7.33,-18.50 5.31,-11.58 3.96,-7.59 2.60,-3.60 2.05,-1.58 1.50,0.42 1.43,0.60 1.35,0.77 1.24,0.92 1.13,1.08 0.98,1.19 0.84,1.31 0.67,1.40 0.50,1.48 0.31,1.52 0.13,1.55 -0.05,1.55 -0.24,1.54 -0.42,1.49 -0.60,1.44 -0.77,1.34 -0.93,1.25 -1.07,1.12 -1.20,0.99 -1.31,0.83 -1.41,0.67 -1.47,0.49 -1.53,0.31 -1.54,0.13 -1.56,-0.05 -1.53,-0.24 -1.50,-0.43 -1.50,-0.43 L -1.50,-0.42 Z"></path></g><g transform="translate(659 10) rotate(0 122 20)"><text x="0" y="14" font-family="Virgil, Segoe UI Emoji" font-size="16px" fill="#000000" text-anchor="start" style="white-space: pre;" direction="ltr">picture of person who added it</text><text x="0" y="34" font-family="Virgil, Segoe UI Emoji" font-size="16px" fill="#000000" text-anchor="start" style="white-space: pre;" direction="ltr">hover: show name, time added</text></g><g stroke-linecap="round" transform="translate(690 204) rotate(0 68 20.5)"><path d="M0 0 C36.36 0, 72.73 0, 136 0 M0 0 C41.02 0, 82.05 0, 136 0 M136 0 C136 8.73, 136 17.46, 136 41 M136 0 C136 16.3, 136 32.59, 136 41 M136 41 C81.89 41, 27.79 41, 0 41 M136 41 C81.89 41, 27.78 41, 0 41 M0 41 C0 27.25, 0 13.5, 0 0 M0 41 C0 30.22, 0 19.43, 0 0" stroke="#000000" stroke-width="1" fill="none"></path></g><g transform="translate(707 212) rotate(0 18.5 10)"><text x="0" y="14" font-family="Virgil, Segoe UI Emoji" font-size="16px" fill="#000000" text-anchor="start" style="white-space: pre;" direction="ltr">text</text></g><g stroke-linecap="round" transform="translate(692 255) rotate(0 5 4.5)"><path d="M10 4.5 C10 4.76, 9.97 5.02, 9.92 5.28 C9.87 5.54, 9.8 5.79, 9.7 6.04 C9.6 6.28, 9.47 6.52, 9.33 6.75 C9.19 6.98, 9.02 7.19, 8.83 7.39 C8.64 7.59, 8.44 7.78, 8.21 7.95 C7.99 8.11, 7.75 8.27, 7.5 8.4 C7.25 8.53, 6.98 8.64, 6.71 8.73 C6.44 8.82, 6.15 8.89, 5.87 8.93 C5.58 8.98, 5.29 9, 5 9 C4.71 9, 4.42 8.98, 4.13 8.93 C3.85 8.89, 3.56 8.82, 3.29 8.73 C3.02 8.64, 2.75 8.53, 2.5 8.4 C2.25 8.27, 2.01 8.11, 1.79 7.95 C1.56 7.78, 1.36 7.59, 1.17 7.39 C0.98 7.19, 0.81 6.98, 0.67 6.75 C0.53 6.52, 0.4 6.28, 0.3 6.04 C0.2 5.79, 0.13 5.54, 0.08 5.28 C0.03 5.02, 0 4.76, 0 4.5 C0 4.24, 0.03 3.98, 0.08 3.72 C0.13 3.46, 0.2 3.21, 0.3 2.96 C0.4 2.72, 0.53 2.48, 0.67 2.25 C0.81 2.02, 0.98 1.81, 1.17 1.61 C1.36 1.41, 1.56 1.22, 1.79 1.05 C2.01 0.89, 2.25 0.73, 2.5 0.6 C2.75 0.47, 3.02 0.36, 3.29 0.27 C3.56 0.18, 3.85 0.11, 4.13 0.07 C4.42 0.02, 4.71 0, 5 0 C5.29 0, 5.58 0.02, 5.87 0.07 C6.15 0.11, 6.44 0.18, 6.71 0.27 C6.98 0.36, 7.25 0.47, 7.5 0.6 C7.75 0.73, 7.99 0.89, 8.21 1.05 C8.44 1.22, 8.64 1.41, 8.83 1.61 C9.02 1.81, 9.19 2.02, 9.33 2.25 C9.47 2.48, 9.6 2.72, 9.7 2.96 C9.8 3.21, 9.87 3.46, 9.92 3.72 C9.97 3.98, 9.99 4.37, 10 4.5 C10.01 4.63, 10.01 4.37, 10 4.5" stroke="#000000" stroke-width="1" fill="none"></path></g><g transform="translate(714 247) rotate(0 69 10)"><text x="0" y="14" font-family="Virgil, Segoe UI Emoji" font-size="16px" fill="#000000" text-anchor="start" style="white-space: pre;" direction="ltr">name date added</text></g><g transform="translate(826 220) rotate(0 66.5 -13.5)" stroke="none" fill="#000000"><path d="M 0,-1.61 Q 0,-1.61 1.72,-1.66 3.44,-1.70 5.33,-1.70 7.21,-1.71 9.74,-1.65 12.26,-1.60 15.86,-1.85 19.46,-2.09 25.01,-2.76 30.56,-3.42 38.92,-5.12 47.28,-6.83 56.57,-9.27 65.86,-11.70 76.45,-14.18 87.05,-16.66 96.71,-19.14 106.36,-21.62 113.36,-23.26 120.36,-24.89 123.93,-25.58 127.50,-26.28 129.96,-27.38 132.42,-28.48 132.67,-28.53 132.92,-28.58 133.18,-28.55 133.43,-28.52 133.67,-28.41 133.90,-28.30 134.08,-28.12 134.27,-27.94 134.39,-27.71 134.50,-27.49 134.54,-27.23 134.58,-26.98 134.54,-26.73 134.49,-26.47 134.37,-26.25 134.25,-26.02 134.06,-25.85 133.87,-25.67 133.64,-25.57 133.40,-25.46 133.15,-25.44 132.89,-25.41 132.64,-25.47 132.39,-25.53 132.17,-25.66 131.96,-25.80 131.79,-25.99 131.63,-26.19 131.53,-26.43 131.44,-26.67 131.43,-26.93 131.42,-27.18 131.49,-27.43 131.56,-27.68 131.71,-27.89 131.85,-28.10 132.06,-28.25 132.27,-28.40 132.51,-28.48 132.75,-28.56 133.01,-28.56 133.27,-28.56 133.51,-28.47 133.75,-28.39 133.96,-28.23 134.16,-28.07 134.30,-27.86 134.44,-27.65 134.51,-27.40 134.57,-27.15 134.56,-26.89 134.54,-26.64 134.44,-26.40 134.35,-26.16 134.18,-25.97 134.01,-25.77 133.79,-25.64 133.57,-25.51 133.57,-25.51 133.57,-25.51 130.79,-24.59 128.02,-23.66 124.50,-22.96 120.98,-22.27 114.01,-20.63 107.04,-19.00 97.36,-16.49 87.68,-13.99 77.12,-11.50 66.57,-9.01 57.21,-6.52 47.85,-4.04 39.39,-2.27 30.93,-0.51 25.32,0.21 19.70,0.94 15.98,1.27 12.26,1.60 9.74,1.65 7.21,1.71 5.33,1.70 3.44,1.70 1.72,1.66 0,1.61 -0.19,1.59 -0.38,1.56 -0.56,1.50 -0.75,1.43 -0.91,1.32 -1.07,1.21 -1.20,1.06 -1.33,0.91 -1.42,0.74 -1.51,0.57 -1.55,0.38 -1.60,0.19 -1.60,-0.00 -1.60,-0.19 -1.55,-0.38 -1.51,-0.57 -1.42,-0.74 -1.33,-0.91 -1.20,-1.06 -1.07,-1.21 -0.91,-1.32 -0.75,-1.43 -0.56,-1.50 -0.38,-1.56 -0.19,-1.59 0.00,-1.61 0.00,-1.61 L 0,-1.61 Z"></path></g><g transform="translate(978 179) rotate(0 114.5 10)"><text x="0" y="14" font-family="Virgil, Segoe UI Emoji" font-size="16px" fill="#000000" text-anchor="start" style="white-space: pre;" direction="ltr">Green me, black other person</text></g><g transform="translate(716 424) rotate(0 62.5 10)"><text x="0" y="14" font-family="Virgil, Segoe UI Emoji" font-size="16px" fill="#000000" text-anchor="start" style="white-space: pre;" direction="ltr">chat text input</text></g><g transform="translate(419 612) rotate(0 5.5 9.5)" stroke="none" fill="#000000"><path d="M 2.50,0 Q 2.50,0 2.49,1.43 2.49,2.86 2.74,4.10 3.00,5.34 3.33,7.10 3.66,8.85 3.88,10.28 4.10,11.72 4.22,12.93 4.34,14.14 4.77,15.63 5.21,17.13 5.13,15.90 5.04,14.67 6.11,14.03 7.17,13.38 6.33,12.62 5.48,11.85 4.07,10.61 2.65,9.37 1.60,8.37 0.56,7.37 -1.06,4.33 -2.68,1.29 -2.82,0.83 -2.95,0.37 -2.93,-0.11 -2.92,-0.59 -2.74,-1.04 -2.57,-1.49 -2.27,-1.86 -1.96,-2.23 -1.55,-2.49 -1.14,-2.74 -0.67,-2.86 -0.20,-2.97 0.27,-2.92 0.75,-2.88 1.19,-2.68 1.63,-2.49 1.98,-2.16 2.34,-1.84 2.57,-1.41 2.80,-0.99 2.89,-0.52 2.97,-0.04 2.90,0.42 2.83,0.90 2.61,1.33 2.40,1.76 2.05,2.10 1.71,2.43 1.27,2.64 0.84,2.85 0.36,2.91 -0.11,2.97 -0.58,2.88 -1.05,2.78 -1.47,2.54 -1.89,2.30 -2.21,1.93 -2.52,1.57 -2.71,1.13 -2.89,0.68 -2.93,0.20 -2.96,-0.27 -2.84,-0.74 -2.72,-1.20 -2.45,-1.61 -2.19,-2.01 -1.81,-2.31 -1.43,-2.60 -0.98,-2.77 -0.52,-2.93 -0.04,-2.94 0.43,-2.94 0.89,-2.80 1.35,-2.65 1.74,-2.36 2.13,-2.08 2.40,-1.68 2.68,-1.29 2.68,-1.29 2.68,-1.29 3.49,0.57 4.31,2.44 5.32,3.52 6.33,4.59 7.50,5.35 8.68,6.11 9.78,6.73 10.88,7.35 12.20,9.04 13.51,10.72 13.73,11.88 13.94,13.04 13.44,14.66 12.94,16.27 12.04,17.09 11.15,17.91 9.74,18.56 8.34,19.21 6.97,20.06 5.60,20.90 4.13,20.85 2.66,20.80 1.38,18.98 0.10,17.16 -0.22,15.82 -0.56,14.48 -0.58,13.41 -0.61,12.34 -0.74,11.11 -0.87,9.89 -1.36,8.09 -1.85,6.29 -2.17,4.58 -2.49,2.88 -2.49,1.44 -2.50,0 -2.46,-0.29 -2.43,-0.59 -2.32,-0.88 -2.21,-1.16 -2.04,-1.41 -1.87,-1.65 -1.64,-1.85 -1.42,-2.05 -1.15,-2.20 -0.88,-2.34 -0.59,-2.41 -0.30,-2.48 0.00,-2.48 0.30,-2.48 0.59,-2.41 0.88,-2.34 1.15,-2.20 1.42,-2.05 1.64,-1.85 1.87,-1.65 2.04,-1.41 2.21,-1.16 2.32,-0.88 2.43,-0.59 2.46,-0.29 2.50,0.00 2.50,0.00 L 2.50,0 Z"></path></g></svg>